<?xml version="1.0" encoding="utf-8"?>
<!-- Generator: Adobe Illustrator 22.1.0, SVG Export Plug-In . SVG Version: 6.00 Build 0)  -->
<svg version="1.1"
	 id="svg3013" inkscape:version="0.48.3.1 r9886" sodipodi:docname="home_font_awesome.svg" xmlns:cc="http://creativecommons.org/ns#" xmlns:dc="http://purl.org/dc/elements/1.1/" xmlns:inkscape="http://www.inkscape.org/namespaces/inkscape" xmlns:rdf="http://www.w3.org/1999/02/22-rdf-syntax-ns#" xmlns:sodipodi="http://sodipodi.sourceforge.net/DTD/sodipodi-0.dtd" xmlns:svg="http://www.w3.org/2000/svg"
	 xmlns="http://www.w3.org/2000/svg" xmlns:xlink="http://www.w3.org/1999/xlink" x="0px" y="0px" viewBox="0 0 1280 1024"
	 style="enable-background:new 0 0 1280 1024;" xml:space="preserve">
<style type="text/css">
	.st0{fill:#FFFFFF;}
</style>
<sodipodi:namedview  bordercolor="#666666" borderopacity="1" gridtolerance="10" guidetolerance="10" id="namedview3019" inkscape:current-layer="svg3013" inkscape:cx="896" inkscape:cy="896" inkscape:pageopacity="0" inkscape:pageshadow="2" inkscape:window-height="480" inkscape:window-maximized="0" inkscape:window-width="640" inkscape:window-x="0" inkscape:window-y="25" inkscape:zoom="0.13169643" objecttolerance="10" pagecolor="#ffffff" showgrid="false">
	</sodipodi:namedview>
<g id="g3015" transform="matrix(1,0,0,-1,68.338983,1285.4237)">
	<path id="path3017" inkscape:connector-curvature="0" class="st0" d="M903.3,715.5V441.2c0-9.9-3.6-18.5-10.9-25.7
		c-7.2-7.2-15.8-10.9-25.7-10.9H647.3V624H501V404.6H281.6c-9.9,0-18.5,3.6-25.7,10.9S245,431.3,245,441.2v274.3
		c0,0.4,0.1,1,0.3,1.7c0.2,0.8,0.3,1.3,0.3,1.7l328.6,270.9l328.6-270.9C903.1,718.1,903.3,717,903.3,715.5z M1030.7,754.9
		l-35.4-42.3c-3-3.4-7-5.5-12-6.3h-1.7c-5,0-9,1.3-12,4L574.1,1040L178.7,710.3c-4.6-3-9.1-4.4-13.7-4c-5,0.8-9,2.9-12,6.3
		l-35.4,42.3c-3,3.8-4.4,8.3-4,13.4c0.4,5.1,2.5,9.2,6.3,12.3l410.9,342.3c12.2,9.9,26.7,14.9,43.4,14.9s31.2-5,43.4-14.9
		L757,1006.3v111.4c0,5.3,1.7,9.7,5.1,13.1c3.4,3.4,7.8,5.1,13.1,5.1H885c5.3,0,9.7-1.7,13.1-5.1c3.4-3.4,5.1-7.8,5.1-13.1V884.6
		l125.1-104c3.8-3,5.9-7.1,6.3-12.3C1035.1,763.2,1033.8,758.7,1030.7,754.9z"/>
</g>
</svg>
