<?xml version="1.0" encoding="utf-8"?>
<!-- Generator: Adobe Illustrator 22.1.0, SVG Export Plug-In . SVG Version: 6.00 Build 0)  -->
<svg version="1.1" id="Layer_1" xmlns="http://www.w3.org/2000/svg" xmlns:xlink="http://www.w3.org/1999/xlink" x="0px" y="0px"
	 viewBox="0 0 478 300" style="enable-background:new 0 0 478 300;" xml:space="preserve">
<style type="text/css">
	.st0{fill:#FFFFFF;}
</style>
<g>
	<g>
		<path class="st0" d="M21.8,164H73c26.3,0,43.5,15.9,43.5,39c0,21.4-10.8,33.5-29,38l33.1,45.5H83l-31.2-45.7v45.7h-30V164z
			 M75.9,217.1c6.7,0,11.2-6.9,11.2-14.1s-5.3-13.5-12-13.5H51.8v27.6H75.9z"/>
		<path class="st0" d="M122.2,164h81.1v26.5h-51v22.1h47.2v26.1h-47.2v22.1h53.3v25.7h-83.3V164z"/>
		<path class="st0" d="M211,164h51.2c25.1,0,39.8,18.6,39.8,39.2c0,22.9-17.2,39.2-39.8,39.2h-21.4v44.1H211V164z M259.4,216.7
			c7.8,0,12-7.1,12-14.3c0-6.7-4.1-12.9-12-12.9h-18.6v27.2H259.4z"/>
		<path class="st0" d="M371.3,159.9c38.6,0,65.9,28.8,65.9,65.3s-27.4,65.3-65.9,65.3c-38.8,0-66-28.8-66-65.3
			S332.5,159.9,371.3,159.9z M371.3,262.2c21.6,0,35.5-16.3,35.5-37c0-20.6-13.9-37-35.5-37c-21.8,0-35.5,16.3-35.5,37
			C335.8,245.9,349.5,262.2,371.3,262.2z"/>
	</g>
	<g>
		<path class="st0" d="M49.3,20.6h56.4c27.6,0,43.8,20.4,43.8,43.1c0,25.2-18.9,43.1-43.8,43.1H82.1v48.5H49.3V20.6z M102.5,78.5
			c8.5,0,13.2-7.9,13.2-15.7c0-7.4-4.5-14.1-13.2-14.1H82.1v29.9H102.5z"/>
		<path class="st0" d="M225.6,16.1c42.4,0,72.5,31.7,72.5,71.9c0,40.2-30.1,71.9-72.5,71.9c-42.7,0-72.5-31.7-72.5-71.9
			C153,47.8,182.9,16.1,225.6,16.1z M225.6,128.6c23.8,0,39.1-18,39.1-40.6c0-22.7-15.3-40.6-39.1-40.6c-24,0-39.1,18-39.1,40.6
			C186.5,110.7,201.5,128.6,225.6,128.6z"/>
		<path class="st0" d="M311.1,20.6h56.4c27.6,0,43.8,20.4,43.8,43.1c0,25.2-18.9,43.1-43.8,43.1h-23.6v48.5h-32.8V20.6z M364.4,78.5
			c8.5,0,13.2-7.9,13.2-15.7c0-7.4-4.5-14.1-13.2-14.1h-20.4v29.9H364.4z"/>
	</g>
</g>
</svg>
